<svg width="24" height="24" viewBox="0 0 24 24" fill="none" xmlns="http://www.w3.org/2000/svg">
<g clip-path="url(#clip0_946_8728)">
<path d="M2.29625 19.7017C2.34612 19.7025 2.83117 19.6972 3.02686 19.6889C3.2233 19.6813 3.99319 19.6458 4.57798 19.5763C5.16277 19.5068 6.99723 19.2696 7.81623 19.1033C8.63524 18.9371 10.6699 18.5306 12.4258 17.9625C14.1809 17.3951 15.7116 16.5171 16.3289 15.7435C16.616 15.3831 16.7837 15.0975 16.919 14.8519C17.0731 14.5701 17.1774 14.3412 17.2809 14.1281C17.1011 14.1236 16.5254 14.11 15.4933 14.2029C14.6146 14.2815 13.7419 14.4258 13.6467 14.4409C13.4647 14.4704 13.1707 14.5217 12.9637 14.5595C12.2913 14.6819 11.4625 14.8746 11.331 14.9056C11.1995 14.9373 11.053 14.9751 10.9124 15.0106C10.5974 15.0899 9.92646 15.2705 8.99336 15.5818C8.14111 15.8666 7.34855 16.2111 7.29189 16.2353C7.17478 16.2859 7.02745 16.3517 6.63381 16.5322C6.43661 16.6221 5.43099 17.0974 4.3891 17.7766C3.77938 18.174 3.16059 18.6712 2.69593 19.0663C2.36878 19.3436 2.11794 19.571 2.00008 19.676C2.00008 19.676 2.08394 19.6874 2.10736 19.6896C2.13003 19.6919 2.24638 19.701 2.29625 19.7017Z" fill="#073871"/>
<path d="M17.2809 14.1282C17.1774 14.3412 17.0731 14.5694 16.919 14.852C16.7837 15.0975 16.616 15.3831 16.3289 15.7435C15.7116 16.5172 14.1809 17.3951 12.4258 17.9625C10.6699 18.5307 8.63524 18.9372 7.81623 19.1034C6.99723 19.2696 5.16277 19.5069 4.57798 19.5764C3.99319 19.6459 3.2233 19.6814 3.02686 19.689C2.83117 19.6973 2.34612 19.7026 2.29625 19.7018C2.24638 19.701 2.13003 19.692 2.10736 19.6897C2.08394 19.6874 2.00008 19.6761 2.00008 19.6761C2.00008 19.6761 2.03408 19.6935 2.08319 19.7094C2.1323 19.726 2.2071 19.7449 2.25545 19.7539C2.3038 19.763 2.42016 19.7842 2.51838 19.797C2.61735 19.8098 3.04574 19.8567 3.11374 19.8627C3.18174 19.8695 4.10652 19.9617 4.80993 19.9776C5.51334 19.9942 6.95491 20.0577 9.14296 19.7834C11.2184 19.5235 13.9406 18.8903 15.9806 18.0472C18.0206 17.204 19.1871 16.5195 19.8611 16.0888C20.535 15.6589 22 14.6744 22 14.6744C20.0348 14.1327 17.6594 14.138 17.2809 14.1282Z" fill="#67BAD7"/>
<path d="M17.8789 4.03718C17.8789 4.03718 18.9797 3.97674 19.4738 4.00998C19.5328 4.01452 19.8048 4.02585 19.7534 4.55019C19.7186 4.91361 19.5139 5.68199 19.4504 5.92981C19.3877 6.17763 18.9321 8.00377 18.8694 8.25763C18.8347 8.39363 18.5113 9.69694 18.1857 10.8877C17.9053 11.9129 17.6145 12.8536 17.6009 12.9103L17.8789 4.03718Z" fill="#5CA736"/>
<path d="M17.2809 14.1282C17.1011 14.1237 16.5253 14.1101 15.4933 14.203C14.6146 14.2816 13.7419 14.4259 13.6467 14.441L13.51 6.34007L13.5666 6.28567C13.9391 5.92981 14.3154 5.57924 14.6962 5.2332C15.1548 4.81614 15.5665 4.43686 16.1831 4.27669C16.4891 4.19736 16.7966 4.14296 17.1071 4.10367L17.2809 14.1282Z" fill="#5CA736"/>
<path d="M2 19.676C2.10124 19.5354 2.48884 19.0511 2.75328 18.73C2.94518 18.4951 4.12987 17.0739 4.86652 16.1778C5.13927 15.8461 5.34629 15.5787 5.42487 15.4812C5.71424 15.1193 6.40783 14.2701 6.40783 14.2701L6.63373 16.5314C6.43654 16.6213 5.43091 17.0973 4.38902 17.7765C3.7793 18.174 3.16051 18.6711 2.69585 19.0663C2.36871 19.3443 2.11786 19.571 2 19.676Z" fill="#5CA736"/>
<path d="M10.9127 15.0103C10.5976 15.0896 9.92669 15.2702 8.99284 15.5822C8.14134 15.8663 7.34878 16.2108 7.29211 16.2358L7.49838 12.8849C8.53498 11.6723 9.60634 10.4612 10.6407 9.29007C10.8666 9.03395 11.1091 8.76875 11.3622 8.49902L10.9127 15.0103Z" fill="#5CA736"/>
<path d="M12.9638 14.5595C12.2914 14.6818 11.4625 14.8745 11.3311 14.9055L11.3726 8.48792C11.8879 7.9394 12.4485 7.37048 13.0182 6.81516L12.9638 14.5595Z" fill="#5CA736"/>
</g>
<defs>
<clipPath id="clip0_946_8728">
<rect width="20" height="15.9958" fill="white" transform="translate(2 4)"/>
</clipPath>
</defs>
</svg>
