<?xml version="1.0" encoding="UTF-8"?>
<!DOCTYPE svg PUBLIC "-//W3C//DTD SVG 1.1//EN" "http://www.w3.org/Graphics/SVG/1.1/DTD/svg11.dtd">
<svg xmlns="http://www.w3.org/2000/svg" version="1.1" width="400px" height="400px" style="shape-rendering:geometricPrecision; text-rendering:geometricPrecision; image-rendering:optimizeQuality; fill-rule:evenodd; clip-rule:evenodd" xmlns:xlink="http://www.w3.org/1999/xlink">
<g><path style="opacity:0.954" fill="#ec7129" d="M 319.5,138.5 C 321.22,140.658 322.053,143.325 322,146.5C 322.666,155.828 323.166,165.161 323.5,174.5C 340.513,174.167 357.513,174.501 374.5,175.5C 358.803,186.362 342.97,197.029 327,207.5C 329.353,224.593 332.519,241.593 336.5,258.5C 336.167,259.167 335.833,259.833 335.5,260.5C 321.647,249.07 307.981,237.404 294.5,225.5C 276.833,234.667 259.167,243.833 241.5,253C 240.5,253.667 239.5,253.667 238.5,253C 249.5,238 260.5,223 271.5,208C 261.282,197.071 250.949,186.238 240.5,175.5C 257.49,174.667 274.49,174.167 291.5,174C 301.429,162.579 310.762,150.746 319.5,138.5 Z"/></g>
<g><path style="opacity:0.959" fill="#1c1d1a" d="M 71.5,151.5 C 80.5,151.5 89.5,151.5 98.5,151.5C 98.6666,176.502 98.5,201.502 98,226.5C 96.1728,242.994 87.0061,252.161 70.5,254C 37.8468,257.847 22.5135,243.347 24.5,210.5C 32.8333,210.5 41.1667,210.5 49.5,210.5C 49.3343,214.846 49.501,219.179 50,223.5C 52.5126,230.34 57.346,232.84 64.5,231C 66.9393,230.226 68.7727,228.726 70,226.5C 71.4619,201.552 71.9619,176.552 71.5,151.5 Z"/></g>
<g><path style="opacity:0.973" fill="#1c1d1a" d="M 192.5,151.5 C 201.167,151.5 209.833,151.5 218.5,151.5C 218.5,159.167 218.5,166.833 218.5,174.5C 223.833,174.5 229.167,174.5 234.5,174.5C 234.5,180.5 234.5,186.5 234.5,192.5C 229.167,192.5 223.833,192.5 218.5,192.5C 218.5,206.167 218.5,219.833 218.5,233.5C 223.833,233.5 229.167,233.5 234.5,233.5C 234.5,240.167 234.5,246.833 234.5,253.5C 225.137,254.87 215.804,254.703 206.5,253C 198.886,251.053 194.386,246.22 193,238.5C 192.5,223.17 192.333,207.837 192.5,192.5C 188.167,192.5 183.833,192.5 179.5,192.5C 179.5,186.5 179.5,180.5 179.5,174.5C 183.833,174.5 188.167,174.5 192.5,174.5C 192.5,166.833 192.5,159.167 192.5,151.5 Z"/></g>
<g><path style="opacity:0.959" fill="#1c1d1a" d="M 135.5,172.5 C 168.449,171.449 184.449,187.449 183.5,220.5C 164.488,220.167 145.488,220.5 126.5,221.5C 129.331,234.753 137.331,239.586 150.5,236C 153.311,234.356 155.644,232.19 157.5,229.5C 165.807,228.502 174.14,228.169 182.5,228.5C 178.34,243.82 168.34,252.654 152.5,255C 134.859,258.341 120.026,253.508 108,240.5C 99.6289,226.186 98.2955,211.186 104,195.5C 111.022,182.966 121.522,175.299 135.5,172.5 Z M 139.5,190.5 C 149.261,190.255 155.261,194.921 157.5,204.5C 147.183,205.666 136.849,205.832 126.5,205C 128.622,198.051 132.955,193.218 139.5,190.5 Z"/></g>
</svg>
