<svg width="24" height="24" viewBox="0 0 24 24" fill="none" xmlns="http://www.w3.org/2000/svg">
<g clip-path="url(#clip0_946_8729)">
<path d="M16.3654 2.07576L19.9759 2L13.7412 12.644H3C3 12.644 6.71237 11.2677 8.14648 10.0808C9.24721 9.15912 13.946 3.83081 14.4449 3.1995C15.0598 2.39141 15.9171 2.13889 16.3654 2.07576Z" fill="url(#paint0_linear_946_8729)"/>
<path d="M5.13718 17.0127L3.61377 14.5252H13.7662L18.1442 22C18.1442 22 15.648 19.9672 14.2139 19.4621C13.1001 19.0707 7.37793 17.9723 6.72487 17.8838C5.89262 17.7828 5.36756 17.2904 5.13718 17.0127Z" fill="url(#paint1_linear_946_8729)"/>
<path d="M20.8588 18.7551L19.655 20.9142L15.3408 13.5404L19.0538 7.18939C19.0538 7.18939 18.6055 9.86615 18.8359 11.1161C19.0151 12.0884 20.6284 16.7096 20.8457 17.2147C21.1148 17.8839 20.9737 18.4773 20.8588 18.7551Z" fill="url(#paint2_linear_946_8729)"/>
</g>
<defs>
<linearGradient id="paint0_linear_946_8729" x1="9.8955" y1="6.55122" x2="15.5086" y2="9.37163" gradientUnits="userSpaceOnUse">
<stop stop-color="#FAAF4C"/>
<stop offset="0.5944" stop-color="#F79C2E"/>
<stop offset="1" stop-color="#F6921E"/>
</linearGradient>
<linearGradient id="paint1_linear_946_8729" x1="15.4266" y1="26.1847" x2="7.45057" y2="11.8873" gradientUnits="userSpaceOnUse">
<stop stop-color="#72A4D7"/>
<stop offset="1" stop-color="#1A1F4A"/>
</linearGradient>
<linearGradient id="paint2_linear_946_8729" x1="23.6389" y1="21.6036" x2="15.6623" y2="7.30619" gradientUnits="userSpaceOnUse">
<stop stop-color="#72A4D7"/>
<stop offset="1" stop-color="#1A1F4A"/>
</linearGradient>
<clipPath id="clip0_946_8729">
<rect width="18" height="20" fill="white" transform="translate(3 2)"/>
</clipPath>
</defs>
</svg>
