<svg width="24" height="24" viewBox="0 0 24 24" fill="none" xmlns="http://www.w3.org/2000/svg">
<rect width="24" height="24" fill="#E5342C"/>
<path fill-rule="evenodd" clip-rule="evenodd" d="M9.4076 8.03366C9.11898 8.10182 9.02292 8.24513 9.02292 8.24513L8.47589 10.7685C8.41614 11.1447 8.6998 11.3614 8.90454 11.4027C9.52982 11.5281 9.74809 10.8865 9.74809 10.8865C9.23759 11.0228 9.312 10.6287 9.32259 10.5783L9.61122 9.16987L10.0735 9.15916L10.1697 8.66457H9.7517L9.90728 8.02164C9.90728 8.02164 9.69623 7.96572 9.4076 8.03366ZM7.35208 9.0517C7.83958 9.0517 7.65784 9.66797 7.61838 9.76846H6.62691C6.65172 9.68741 6.68126 9.59173 6.74169 9.44755C6.87856 9.18561 7.05669 9.0517 7.35208 9.0517ZM6.59738 10.2845H8.25267C8.25267 10.2845 8.93522 8.62155 7.42604 8.59293C7.10314 8.58682 5.86274 8.86754 5.84741 10.2845C5.83771 11.183 6.35813 11.422 7.18928 11.422C7.47519 11.3934 7.7318 11.3647 7.9981 11.2116L7.90948 10.7528C7.71218 10.8485 7.58839 10.8961 7.16943 10.8961C6.53063 10.8961 6.57753 10.3705 6.59738 10.2845ZM2.8092 8.65017H2.00015L2.37514 12.1577H3.10504L4.94997 8.65017H4.10146L2.9472 11.0587L2.8092 8.65017ZM5.8774 8.65998H5.06835L4.48615 11.4027H5.29519L5.8774 8.65998ZM12.3782 12.4734H13.1872L12.605 15.2162H11.796L12.3782 12.4734ZM13.0636 9.76846C13.1033 9.66797 13.2851 9.0517 12.7976 9.0517C12.5022 9.0517 12.324 9.18561 12.1872 9.44755C12.1267 9.59173 12.097 9.68741 12.0724 9.76846H13.0636ZM13.6982 10.2845H12.0429C12.0232 10.3705 11.9761 10.8961 12.6151 10.8961C13.0339 10.8961 13.1577 10.8485 13.3547 10.7528L13.4436 11.2116C13.1773 11.3647 12.9207 11.3934 12.6348 11.422C11.8036 11.422 11.2832 11.183 11.2929 10.2845C11.3082 8.86754 12.5486 8.58682 12.8713 8.59293C14.3807 8.62155 13.6982 10.2845 13.6982 10.2845ZM14.4833 8.24513C14.4833 8.24513 14.5794 8.10182 14.8678 8.03366C15.1564 7.96572 15.3674 8.02164 15.3674 8.02164L15.2121 8.66457H15.6299L15.5338 9.15916L15.0714 9.16987L14.7827 10.5783C14.7722 10.6287 14.6977 11.0228 15.2082 10.8865C15.2082 10.8865 14.99 11.5281 14.3647 11.4027C14.1602 11.3614 13.8765 11.1447 13.936 10.7685L14.4833 8.24513ZM11.3202 8.6567H10.538L9.98102 11.1806C9.93998 11.3691 9.65541 11.9834 9.02653 11.9548C8.5724 11.934 8.26461 11.6751 8.26461 11.6751C8.21275 12.0264 8.45695 12.3775 8.81954 12.4922C9.8367 12.814 10.6097 12.0688 10.7801 11.288L11.3202 8.6567ZM10.8764 14.7144V13.2749L10.0439 14.7144H10.8764ZM10.8789 15.2162H9.78394L9.30072 16H8.51152L10.6915 12.4743H11.5398L11.6778 16H10.8789V15.2162ZM14.2612 12.9726C14.3906 12.9188 14.6756 12.9402 14.8051 12.9726L14.9938 12.4277C14.5794 12.3705 13.9985 12.374 13.5324 12.6392L12.9775 15.2234H13.7802L14.2612 12.9726ZM15.1275 15.0814C15.0493 15.214 14.8908 15.2688 14.7737 15.2039C14.6565 15.1386 14.6249 14.9787 14.7032 14.8461C14.7814 14.7135 14.9397 14.6589 15.0572 14.7237C15.1742 14.7888 15.2058 14.949 15.1275 15.0814ZM16.6768 15.0512L16.625 14.6964C16.344 14.8721 15.9778 14.8218 16.0701 14.1804C16.0991 13.9806 16.4067 13.3094 16.873 13.5532L17.0728 13.252C17.0728 13.252 16.9544 13.1552 16.7086 13.1107C16.4067 13.0477 16.1442 13.1364 15.9296 13.2987C15.7298 13.4779 15.5965 13.7029 15.5154 14.012C15.4362 14.3117 15.371 14.9654 15.9036 15.1624C16.0719 15.2247 16.4586 15.2376 16.6768 15.0512ZM18.1048 14.1912C18.023 14.6233 17.8367 14.8247 17.6018 14.8218C17.3666 14.7803 17.3614 14.5676 17.443 14.1357C17.5249 13.7031 17.7017 13.4521 17.9644 13.46C18.205 13.4672 18.1867 13.7593 18.1048 14.1912ZM18.2686 13.1351C17.6832 12.951 17.2309 13.2269 16.9506 13.8471C16.6705 14.4671 16.7375 14.9612 17.2541 15.1803C17.7792 15.3381 18.3055 15.1626 18.5858 14.5424C18.8659 13.9222 18.805 13.3038 18.2686 13.1351ZM21.3676 13.7754L21.0605 15.1983H21.6747L21.9816 13.7324C22.0743 13.4565 21.8116 13.1052 21.364 13.1052C21.011 13.1203 20.7119 13.2581 20.6198 13.3005C20.6028 13.3084 20.5928 13.313 20.5908 13.313C20.5891 13.313 20.5847 13.3094 20.577 13.3033C20.5273 13.2636 20.3405 13.1145 19.8695 13.1052C19.8695 13.1052 19.4884 13.0908 19.0889 13.2664C19.0889 13.2664 18.6573 15.1983 18.6744 15.1983H19.2886L19.6402 13.5174C19.7288 13.4456 19.932 13.4654 19.9656 13.4707C20.2098 13.5102 20.2037 13.685 20.1802 13.7468L19.8695 15.1983H20.4799L20.824 13.5854C20.8472 13.5236 21.0163 13.4493 21.1938 13.4707C21.252 13.4779 21.4526 13.5461 21.3676 13.7754Z" fill="white"/>
</svg>
