<svg width="24" height="24" viewBox="0 0 24 24" fill="none" xmlns="http://www.w3.org/2000/svg">
<path d="M12.0005 16.8466C11.826 16.9452 10.5778 17.9993 8.09383 17.9993C6.00114 18.0004 3.76652 16.9323 3.06461 16.953C2.81782 16.9426 2.61988 16.9926 2.46429 17.0607C2.17128 17.1833 1.88672 17.0042 2.04559 16.7046C2.59644 15.6673 3.53014 15.029 4.41503 14.7631C5.06026 14.5691 5.64954 14.5036 5.95556 14.8422C6.62752 15.5856 7.8425 16.5035 9.02362 16.6241C9.11868 16.6339 9.54774 16.6695 9.55232 16.5489C9.55701 16.4749 9.41101 16.4269 9.26323 16.4159C8.05669 16.329 5.88264 15.0426 4.68782 12.5517C4.23923 11.617 3.88304 10.7107 3.10238 10.3163C2.92918 10.2333 2.92397 9.91482 3.2873 9.82852C3.54186 9.76822 5.14688 9.61446 6.98235 10.5771C7.82489 11.0189 7.94277 11.4152 7.94537 11.761C7.93818 14.3713 9.26385 15.4072 9.77631 15.7134C10.0615 15.8833 10.3285 15.956 10.3571 15.8671C10.3799 15.7925 10.305 15.7419 10.2392 15.7024C8.64988 14.741 8.22988 13.262 8.21754 11.7564C8.20582 10.267 8.75927 8.97813 9.15186 7.92207C9.20984 7.77287 9.39606 7.14365 9.23781 6.56114C9.11931 6.12652 9.21567 6 9.44486 6C9.69687 6 10.0322 6.40608 10.1448 6.54557C10.2353 6.64998 10.5277 7.00546 10.9705 7.87666C11.8462 9.60148 11.8521 11.4035 11.8521 11.6241C11.8521 12.8624 11.5317 13.0058 11.0095 13.2626C10.488 13.5195 10.2399 13.8504 10.2392 14.2344C10.2382 14.6288 10.514 15.0394 11.0095 15.184C11.393 15.2956 11.6365 15.2535 11.6164 15.1542C11.6007 15.0757 11.4308 15.0563 11.3813 15.0426C10.8585 14.9012 10.5121 14.6346 10.5121 14.2344C10.5121 13.7349 11.13 13.3684 11.9992 13.3684C12.8691 13.3684 13.487 13.7349 13.487 14.2344C13.487 14.6346 13.1413 14.9019 12.6184 15.0426C12.5689 15.0563 12.399 15.0757 12.3834 15.1542C12.3632 15.2541 12.6067 15.2963 12.9908 15.184C13.4857 15.04 13.7611 14.6294 13.7605 14.2344C13.7599 13.851 13.5117 13.5195 12.9908 13.2626C12.4686 13.0058 12.1477 12.8624 12.1477 11.6248C12.1477 11.4042 12.1542 9.60148 13.0293 7.87666C13.472 7.00613 13.7644 6.64998 13.8549 6.54557C13.9675 6.40608 14.3029 6 14.5548 6C14.784 6 14.8804 6.12652 14.7619 6.56114C14.605 7.14365 14.7899 7.77287 14.8472 7.92207C15.2405 8.97942 15.7945 10.267 15.7828 11.7564C15.7698 13.2626 15.3505 14.7416 13.7611 15.703C13.696 15.7419 13.6192 15.7925 13.6433 15.8671C13.6712 15.9566 13.9382 15.8846 14.2234 15.714C14.7365 15.4079 16.0615 14.3713 16.055 11.761C16.0571 11.4152 16.1748 11.0189 17.018 10.5771C18.8535 9.61446 20.4585 9.76884 20.7124 9.82852C21.0758 9.91482 21.0712 10.234 20.898 10.3163C20.1166 10.7107 19.7605 11.6176 19.3125 12.5517C18.1177 15.0426 15.943 16.3296 14.7365 16.4165C14.5887 16.4269 14.4422 16.4756 14.4474 16.5495C14.4521 16.6695 14.881 16.6339 14.9761 16.6241C16.1572 16.5041 17.3722 15.5862 18.0442 14.8422C18.3508 14.5042 18.9394 14.5691 19.5853 14.7637C20.4695 15.029 21.4032 15.6673 21.9541 16.7052C22.1136 17.0049 21.8291 17.1833 21.5354 17.0613C21.3798 16.9932 21.1819 16.9433 20.9351 16.953C20.2338 16.9329 17.9992 18.0006 15.9052 18C13.4219 18 12.1743 16.9452 12.0005 16.8466Z" fill="#D99E09"/>
</svg>
