<svg width="24" height="24" viewBox="0 0 24 24" fill="none" xmlns="http://www.w3.org/2000/svg">
<rect width="24" height="24" fill="#0367B3"/>
<g clip-path="url(#clip0_946_8727)">
<path d="M21.3898 20.9991L16.0128 17.1223C16.0947 16.8537 16.1626 16.5851 16.2609 16.3165C16.771 14.9618 17.2437 13.5892 17.8139 12.2614C18.8297 9.89415 19.903 7.55551 20.9563 5.20434C21.1217 4.83187 21.2827 4.45762 21.4464 4.08426L21.5029 3.90519L21.4455 4.08426C21.3784 4.14445 21.3183 4.21234 21.2662 4.28661C20.9693 4.82382 20.6821 5.36102 20.3887 5.89286C19.7318 7.08665 19.074 8.28253 18.4154 9.4805C17.8652 10.4815 17.3168 11.4837 16.7702 12.4871L14.7359 16.2072L5.93619 14.1569C4.79412 13.8883 3.65292 13.6197 2.50998 13.3609C2.24884 13.3009 2.02948 13.1944 2.00249 12.8918C1.97551 12.5891 2.17137 12.4656 2.40378 12.3546L21.6892 3.13251C21.7763 3.09222 21.8633 3.05462 21.9791 3C21.9852 3.12624 21.9948 3.21936 21.9948 3.31248C21.9948 8.97821 21.9965 14.644 22 20.3097C22 20.6087 21.9278 20.8415 21.6744 21L21.3898 20.9991Z" fill="#FEC70B"/>
<path d="M14.7367 16.2099L16.771 12.4934L18.4162 9.48678L20.3896 5.89914C20.683 5.36193 20.9702 4.82473 21.2671 4.29289C21.3191 4.21863 21.3793 4.15074 21.4464 4.09055C21.2827 4.4639 21.1217 4.83816 20.9563 5.21062C19.9056 7.56179 18.8297 9.90043 17.8139 12.2677C17.2437 13.5955 16.7693 14.9681 16.2609 16.3227C16.1626 16.5842 16.0947 16.8599 16.0128 17.1285L14.7367 16.2099Z" fill="#FEE600"/>
</g>
<defs>
<clipPath id="clip0_946_8727">
<rect width="20" height="18" fill="white" transform="translate(2 3)"/>
</clipPath>
</defs>
</svg>
