<svg width="24" height="24" viewBox="0 0 24 24" fill="none" xmlns="http://www.w3.org/2000/svg">
<path fill-rule="evenodd" clip-rule="evenodd" d="M19.4425 2.43331C19.6661 2.71917 19.8286 3.05361 19.9187 3.41333C20.0088 3.77304 20.0242 4.14938 19.964 4.51612V17.1756C19.9854 17.8109 19.7779 18.4308 19.3842 18.9079C19.2193 19.092 19.0208 19.238 18.8009 19.337C18.581 19.4359 18.3444 19.4857 18.1057 19.4832H17.4913V21.0086C17.4968 21.1445 17.4736 21.2799 17.4234 21.4049C17.3732 21.5299 17.2973 21.6412 17.2013 21.7307C16.9896 21.9162 16.7211 22.0117 16.4473 21.9989H15.2491C14.979 22.0038 14.7171 21.9006 14.5149 21.7096C14.4177 21.6247 14.3395 21.5177 14.2861 21.3964C14.2326 21.2752 14.2053 21.1427 14.2061 21.0086V19.4832H9.76035V21.0086C9.76586 21.1445 9.74267 21.2799 9.69248 21.4049C9.6423 21.5299 9.56641 21.6412 9.47043 21.7307C9.25868 21.9162 8.99016 22.0117 8.71644 21.9989H7.51817C7.24813 22.0038 6.98617 21.9006 6.78396 21.7096C6.68676 21.6247 6.60858 21.5177 6.55516 21.3964C6.50174 21.2752 6.47444 21.1427 6.47524 21.0086V19.4832H5.93498C5.44287 19.4824 4.97084 19.2749 4.62093 18.9058C4.41924 18.6894 4.26052 18.4318 4.15426 18.1485C4.048 17.8652 3.99638 17.5619 4.0025 17.2568V4.51612C3.98754 4.16685 4.03988 3.81802 4.15629 3.49119C4.27271 3.16436 4.45071 2.86647 4.67931 2.61594C5.05753 2.22544 5.56203 2.00508 6.08835 2.00049H18.3412C18.7466 1.99009 19.1404 2.14486 19.4425 2.43331ZM8.87179 19.4832H7.40239V20.9263C7.40239 20.9812 7.44098 21.0086 7.51817 21.0086H8.75503C8.77926 21.0064 8.80258 20.9977 8.82282 20.9833C8.84306 20.9689 8.85956 20.9493 8.8708 20.9263V19.4832H8.87179ZM16.5631 19.4009H15.0561V20.8872C15.0637 20.9008 15.0736 20.9127 15.0855 20.9221C15.0974 20.9316 15.1109 20.9384 15.1252 20.9422C15.1396 20.9461 15.1545 20.9468 15.1692 20.9444C15.1838 20.9421 15.1978 20.9366 15.2105 20.9284H16.4859L16.5631 20.8872V19.4019V19.4009ZM19.0368 4.51612C19.0864 4.0443 18.977 3.56905 18.7281 3.17544C18.6612 3.10876 18.5818 3.05785 18.4952 3.02603C18.4086 2.9942 18.3167 2.98216 18.2255 2.9907H6.05471C5.75145 2.98847 5.45971 3.11449 5.24332 3.34118C4.97879 3.66596 4.84041 4.0862 4.85643 4.51612V17.2579C4.85201 17.4348 4.88239 17.6108 4.94562 17.7744C5.00885 17.9381 5.10352 18.0858 5.22353 18.208C5.39777 18.3815 5.62375 18.4839 5.86176 18.4972H18.2304C18.3353 18.4959 18.4385 18.4691 18.5322 18.419C18.626 18.3689 18.7078 18.2968 18.7717 18.208C18.959 17.9024 19.0534 17.5426 19.0418 17.1777V4.51612H19.0368ZM7.47957 15.6913C7.63161 15.5275 7.8322 15.4251 8.04712 15.4016C8.26203 15.378 8.47796 15.4347 8.65805 15.5621C8.83813 15.6894 8.97121 15.8795 9.03458 16.0998C9.09795 16.3202 9.08768 16.5572 9.00553 16.7704C8.92337 16.9835 8.77442 17.1597 8.5841 17.2688C8.39377 17.3779 8.17386 17.4131 7.9619 17.3685C7.74993 17.3239 7.55905 17.2021 7.42183 17.0241C7.2846 16.8461 7.20954 16.6228 7.20944 16.3923C7.20698 16.2619 7.22969 16.1324 7.27616 16.0118C7.32263 15.8912 7.39187 15.7821 7.47957 15.6913ZM15.4608 15.6913C15.6356 15.5064 15.8717 15.4027 16.1178 15.4027C16.364 15.4027 16.6001 15.5064 16.7749 15.6913C16.9357 15.8845 17.0245 16.1339 17.0245 16.3923C17.0245 16.6506 16.9357 16.9 16.7749 17.0932C16.6001 17.2781 16.364 17.3818 16.1178 17.3818C15.8717 17.3818 15.6356 17.2781 15.4608 17.0932C15.3001 16.8999 15.2115 16.6504 15.2117 16.3921C15.2119 16.1337 15.3009 15.8844 15.4618 15.6913H15.4608ZM10.7657 4.70403C10.7142 4.65516 10.6736 4.59462 10.6469 4.52686C10.6202 4.45909 10.608 4.38581 10.6113 4.31238C10.6081 4.23896 10.6203 4.1657 10.647 4.09795C10.6737 4.0302 10.7143 3.96965 10.7657 3.92073C10.8607 3.82765 10.985 3.77603 11.114 3.77611H12.9693C13.0356 3.77497 13.1014 3.78806 13.1629 3.8146C13.2244 3.84115 13.2802 3.88061 13.3271 3.93064C13.374 3.98066 13.411 4.04024 13.4359 4.10581C13.4607 4.17139 13.473 4.24164 13.4719 4.31238C13.4751 4.38579 13.4628 4.45903 13.4361 4.52677C13.4094 4.59451 13.3689 4.65506 13.3176 4.70403C13.2226 4.7972 13.0983 4.84883 12.9693 4.84865H11.113C10.9843 4.84877 10.8603 4.79713 10.7657 4.70403ZM17.5882 6.00249C17.8802 6.32811 18.0623 6.74818 18.1057 7.19643V12.1031C18.0955 12.5592 17.9229 12.9941 17.6229 13.3192C17.4732 13.477 17.2949 13.6004 17.0988 13.6819C16.9028 13.7635 16.6932 13.8013 16.483 13.7932H7.59633C7.38767 13.7968 7.18053 13.7548 6.98771 13.6696C6.79488 13.5844 6.62047 13.458 6.47524 13.2981C6.17142 12.982 5.99171 12.5544 5.97258 12.1021V7.19643C5.98395 6.73637 6.1645 6.29954 6.47524 5.98032C6.62335 5.82601 6.79874 5.70465 6.9912 5.62328C7.18365 5.54191 7.38935 5.50216 7.59633 5.50633H16.4859C16.6917 5.50154 16.8962 5.54306 17.0859 5.62818C17.2757 5.71331 17.4465 5.84012 17.5872 6.00038L17.5882 6.00249ZM7.09466 12.5792C7.23391 12.7072 7.4137 12.7737 7.59732 12.765H11.6176V6.49865H7.59633C7.50347 6.49532 7.41096 6.51234 7.3245 6.54865C7.23805 6.58497 7.15949 6.6398 7.09367 6.70978C7.0306 6.77339 6.98048 6.85018 6.94643 6.93536C6.91238 7.02054 6.89514 7.11228 6.89577 7.20488V12.1031C6.8938 12.193 6.91052 12.2822 6.94474 12.3643C6.97896 12.4465 7.02982 12.5195 7.09367 12.5782L7.09466 12.5792ZM17.1054 7.19538C17.1035 7.01028 17.0335 6.8334 16.9103 6.703C16.7872 6.5726 16.6208 6.49919 16.4473 6.49865H12.4656V12.8083H16.4464C16.6204 12.8075 16.787 12.7334 16.9101 12.6021C17.0331 12.4708 17.1026 12.293 17.1034 12.1073V7.19643L17.1054 7.19538Z" fill="#77DADA"/>
</svg>
