<svg width="24" height="24" viewBox="0 0 24 24" fill="none" xmlns="http://www.w3.org/2000/svg">
<path fill-rule="evenodd" clip-rule="evenodd" d="M20.9873 17.2587C21.036 17.3113 21.0735 17.373 21.0974 17.4401C21.1213 17.5073 21.1313 17.5785 21.1266 17.6495C21.1308 17.7239 21.1167 17.7983 21.0856 17.8663C21.0544 17.9343 21.0071 17.994 20.9477 18.0403C20.8416 18.127 20.7084 18.1754 20.5704 18.1772C20.3497 18.1986 20.1346 18.2581 19.935 18.3531C19.7503 18.4437 19.577 18.5551 19.4185 18.685C19.2385 18.9101 19.0073 19.0905 18.7434 19.2117C18.4013 19.3655 18.0274 19.4391 17.6514 19.4266C17.2793 19.4415 16.9096 19.3609 16.5788 19.1927C16.3253 19.0548 16.0917 18.884 15.8844 18.685C15.7368 18.5288 15.5587 18.4034 15.3608 18.3161C15.1629 18.2289 14.9492 18.1817 14.7324 18.1772C14.5042 18.1932 14.2814 18.253 14.0766 18.3531C13.9005 18.4473 13.7342 18.5585 13.5805 18.685C13.4052 18.907 13.181 19.0871 12.9247 19.2117C12.5702 19.3707 12.1823 19.4444 11.7931 19.4266C11.4977 19.4297 11.2035 19.3903 10.9197 19.3097C10.8575 19.2877 10.8016 19.2513 10.7566 19.2037C10.7117 19.156 10.679 19.0984 10.6614 19.0358C10.6214 18.9073 10.6283 18.7691 10.6808 18.645C10.7033 18.584 10.7404 18.5291 10.7888 18.485C10.8373 18.4408 10.8957 18.4086 10.9593 18.3911C11.0955 18.3521 11.2401 18.3521 11.3762 18.3911C11.5382 18.4323 11.7051 18.4521 11.8724 18.4501C12.0945 18.4544 12.3138 18.4006 12.5078 18.2942C12.704 18.1814 12.8787 18.0359 13.0243 17.8644C13.2164 17.6566 13.4451 17.4845 13.6994 17.3566C14.0375 17.1907 14.4144 17.1166 14.7914 17.1417C15.1646 17.1392 15.5328 17.2264 15.864 17.3956C16.1059 17.527 16.3323 17.6842 16.5391 17.8644C16.6946 18.009 16.8682 18.1336 17.0556 18.2352C17.2525 18.3322 17.471 18.3792 17.6911 18.3721C17.9195 18.3779 18.1454 18.3241 18.3458 18.2162C18.5283 18.1147 18.7012 17.9972 18.8624 17.8654C19.0501 17.6608 19.2718 17.4891 19.5181 17.3576C19.8686 17.1854 20.2584 17.1048 20.6498 17.1237C20.7124 17.1225 20.7746 17.1338 20.8327 17.157C20.8907 17.1802 20.9433 17.2148 20.9873 17.2587ZM5.02473 17.4926C5.1353 17.567 5.25571 17.6262 5.38261 17.6685C5.44799 17.6883 5.50745 17.7235 5.55582 17.7711C5.6042 17.8186 5.64003 17.8771 5.66019 17.9413C5.69986 18.07 5.69267 18.2082 5.63985 18.3321C5.58211 18.4179 5.5061 18.4903 5.4171 18.5443C5.32809 18.5983 5.22821 18.6327 5.12436 18.645L4.92102 18.567C4.63158 18.4385 4.3638 18.2673 4.12696 18.0593C3.98075 17.9127 3.81362 17.7877 3.6308 17.6885C3.42696 17.5906 3.20173 17.5436 2.97501 17.5515C2.89712 17.5654 2.81701 17.5612 2.74108 17.5392C2.66514 17.5173 2.59547 17.4782 2.53761 17.4251C2.47975 17.372 2.43529 17.3063 2.40779 17.2334C2.38029 17.1604 2.37051 17.0821 2.37921 17.0048C2.38622 16.9257 2.40916 16.8487 2.44668 16.7783C2.48421 16.708 2.53558 16.6457 2.5978 16.595C2.70418 16.5088 2.83715 16.4605 2.97501 16.4581C3.34686 16.4462 3.71576 16.5267 4.04766 16.692C4.30805 16.8274 4.54765 16.9983 4.75937 17.1997C4.82403 17.3141 4.91234 17.4138 5.01862 17.4926H5.02473ZM20.971 19.7914C21.0104 19.8517 21.0346 19.9203 21.0415 19.9916C21.0484 20.0629 21.0378 20.1348 21.0107 20.2012C21.0161 20.2786 21.0026 20.3561 20.9715 20.4274C20.9404 20.4986 20.8925 20.5616 20.8317 20.611C20.7254 20.6973 20.5924 20.7455 20.4545 20.748C20.2254 20.7388 19.9983 20.7928 19.7987 20.9039C19.6249 21.0091 19.459 21.1267 19.3026 21.2557C19.1103 21.4633 18.8816 21.6353 18.6275 21.7635C18.2891 21.93 17.9137 22.0104 17.5355 21.9973C17.1546 22.0107 16.7771 21.923 16.4425 21.7435C16.1917 21.601 15.9536 21.4378 15.7308 21.2557C15.6011 21.0892 15.4322 20.956 15.2387 20.8676C15.0452 20.7792 14.8327 20.7381 14.6196 20.748C14.3905 20.7388 14.1633 20.7928 13.9638 20.9039C13.7897 21.0089 13.6239 21.1265 13.4676 21.2557C13.2801 21.4605 13.0583 21.6322 12.8118 21.7635C12.4678 21.9343 12.0846 22.0149 11.6995 21.9973C11.3123 22.0154 10.9276 21.9276 10.5883 21.7435C10.3516 21.6057 10.1316 21.4421 9.93246 21.2557C9.78641 21.1089 9.61924 20.984 9.43629 20.8849C9.23254 20.7867 9.00726 20.7397 8.78052 20.748C8.54546 20.7407 8.31261 20.7945 8.10541 20.9039C7.9314 20.9995 7.77134 21.1179 7.62958 21.2557C7.44161 21.46 7.21989 21.6317 6.97379 21.7635C6.62972 21.9343 6.24657 22.0149 5.8615 21.9973C5.48505 22.0154 5.10991 21.9415 4.76953 21.7824C4.51513 21.6455 4.27652 21.482 4.05782 21.2947C3.91908 21.1531 3.75807 21.0343 3.58097 20.9429C3.3677 20.8546 3.13699 20.8147 2.90588 20.8259C2.82952 20.8257 2.75402 20.81 2.68403 20.78C2.61404 20.75 2.55106 20.7062 2.49895 20.6513C2.44684 20.5964 2.40672 20.5316 2.38106 20.4609C2.35539 20.3902 2.34472 20.3151 2.34972 20.2402C2.34426 20.1628 2.35765 20.0853 2.38877 20.014C2.41989 19.9428 2.46785 19.8798 2.52867 19.8304C2.63476 19.7437 2.76791 19.6953 2.90588 19.6935C3.28682 19.6764 3.66503 19.7643 3.99783 19.9474C4.23429 20.0871 4.45994 20.2437 4.67294 20.4161C4.84458 20.5586 5.03098 20.6829 5.22908 20.7869C5.4376 20.8928 5.66952 20.9464 5.90419 20.9429C6.12665 20.9501 6.34676 20.8961 6.53964 20.7869C6.71665 20.6787 6.88308 20.5545 7.03682 20.4161C7.25679 20.2355 7.50458 20.0904 7.7709 19.9863C8.14222 19.8354 8.54147 19.7622 8.94318 19.7714C9.3216 19.7554 9.69781 19.836 10.0351 20.0053C10.2885 20.1435 10.522 20.3143 10.7296 20.5131C11.0596 20.7597 11.4674 20.8843 11.8815 20.8649C12.1036 20.8689 12.3228 20.8151 12.517 20.709C12.6992 20.607 12.872 20.4896 13.0335 20.3581C13.2254 20.1502 13.4542 19.9781 13.7086 19.8504C14.0465 19.6842 14.4236 19.61 14.8005 19.6355C15.1738 19.6327 15.5421 19.7199 15.8732 19.8894C16.115 20.0208 16.3415 20.178 16.5483 20.3581C16.7039 20.5026 16.8775 20.6272 17.0648 20.729C17.2618 20.8257 17.4801 20.8728 17.7002 20.8659C17.9286 20.8714 18.1545 20.8176 18.355 20.71C18.5372 20.608 18.71 20.4906 18.8715 20.3591C19.0591 20.1544 19.2809 19.9827 19.5273 19.8514C19.8778 19.6792 20.2675 19.5986 20.6589 19.6175C20.7217 19.6188 20.7831 19.636 20.8372 19.6673C20.8913 19.6986 20.9363 19.7431 20.968 19.7964L20.971 19.7914ZM2.80014 15.1847C2.55154 15.0192 2.36367 14.7795 2.26431 14.501C2.0635 14.0464 1.97501 13.5515 2.00607 13.0567C2.04606 12.6143 2.06606 12.3671 2.06606 12.3151C2.14109 12.1904 2.22753 12.0726 2.32431 11.9633C2.35404 11.9225 2.39191 11.8881 2.4356 11.8621C2.4793 11.8362 2.52792 11.8192 2.57849 11.8123L7.22493 11.6954C7.17211 11.4116 7.17211 11.1207 7.22493 10.8368V10.7579L8.61478 6.77582C8.69473 6.47022 8.83854 6.18433 9.03704 5.93636C9.23554 5.68839 9.48439 5.48377 9.76775 5.33553C10.1035 5.10385 10.5106 4.99366 10.9197 5.02368C10.7879 4.76786 10.7068 4.48971 10.6808 4.20408C10.6531 3.92537 10.6943 3.64423 10.8007 3.38449C10.8757 3.12918 11.0068 2.89318 11.1848 2.69318C11.3628 2.49317 11.5833 2.33405 11.8307 2.22705C12.3362 1.98231 12.9169 1.93343 13.4574 2.09012C13.729 2.16461 13.9812 2.2955 14.1969 2.47396C14.4126 2.65242 14.5869 2.8743 14.708 3.12461C14.8455 3.38434 14.9286 3.6685 14.9526 3.96034C14.9765 4.25217 14.9407 4.54577 14.8473 4.82378C14.7663 5.08417 14.6284 5.32398 14.443 5.52635C14.2577 5.72872 14.0296 5.88876 13.7747 5.9952C13.4755 6.12878 13.1505 6.19699 12.822 6.19511H12.703L12.7457 6.30705C12.855 6.58795 12.9152 6.88499 12.9237 7.18562C12.9366 7.51344 12.8759 7.84005 12.7457 8.14215L12.5068 9.00073L14.1336 9.58644C14.159 9.63941 14.1864 9.65141 14.2129 9.62542C14.4889 9.73994 14.7143 9.94766 14.8483 10.2111L16.8736 8.18113C16.685 7.88298 16.6078 7.52963 16.655 7.18162C16.6949 6.80101 16.8711 6.44673 17.1522 6.18211L18.9823 4.30803C19.1391 4.14759 19.3272 4.01994 19.5353 3.93274C19.7435 3.84553 19.9675 3.80059 20.1938 3.80059C20.42 3.80059 20.644 3.84553 20.8522 3.93274C21.0603 4.01994 21.2484 4.14759 21.4052 4.30803L21.5231 4.43597C21.8284 4.76786 21.9982 5.19892 22 5.64637C22.0027 6.08308 21.8316 6.50352 21.5231 6.8178L19.4185 8.69188C19.2656 8.87033 19.0669 9.00527 18.843 9.08269C18.6458 9.15544 18.4375 9.19497 18.2269 9.19963C17.9368 9.1989 17.651 9.13038 17.3932 8.99973L11.1576 15.1307C11.3163 15.4169 11.379 15.745 11.3366 16.0683C11.2862 16.4277 11.1109 16.7589 10.8404 17.0058L9.01029 18.8049C8.85706 18.9834 8.65801 19.1184 8.43381 19.1957C8.22392 19.2711 8.00248 19.3106 7.77904 19.3127C7.5683 19.3066 7.36102 19.2585 7.16981 19.1712C6.97859 19.0839 6.80743 18.9593 6.66673 18.8049L6.50813 18.688C6.3448 18.534 6.21483 18.3491 6.12604 18.1444C6.03726 17.9397 5.99149 17.7195 5.99149 17.4971C5.99149 17.2746 6.03726 17.0544 6.12604 16.8497C6.21483 16.645 6.3448 16.4602 6.50813 16.3061L8.37484 14.507C8.66741 14.2325 9.04425 14.061 9.44647 14.0193C9.85338 13.9826 10.2606 14.0861 10.5984 14.3121L12.942 12.0132L11.5521 11.5055L11.2339 12.521C11.1624 12.6445 11.0506 12.7406 10.9167 12.7939C10.791 12.8455 10.6526 12.8591 10.5191 12.8328H8.41449C8.39669 12.8563 8.37117 12.8731 8.34226 12.8802C8.31335 12.8873 8.28283 12.8843 8.25588 12.8718L2.96891 12.9498C2.94099 13.1045 2.9345 13.2622 2.9496 13.4186C2.96416 13.6071 3.0109 13.792 3.08787 13.9653C3.15633 14.1119 3.26156 14.239 3.3937 14.3346C3.52585 14.4303 3.68056 14.4913 3.8433 14.512H6.50406C6.67489 14.5454 6.82909 14.6349 6.94125 14.7659C6.99963 14.8157 7.04328 14.88 7.06762 14.9521C7.09195 15.0242 7.09606 15.1015 7.07953 15.1757C7.03296 15.3186 6.95874 15.4513 6.86094 15.5665C6.82165 15.6251 6.76885 15.6737 6.70684 15.7085C6.64483 15.7432 6.57535 15.763 6.50406 15.7664L3.80364 15.6495L3.64402 15.5715C3.34082 15.4949 3.05399 15.3656 2.79708 15.1897L2.80014 15.1847ZM10.4459 15.7894C10.4434 15.6999 10.4204 15.6122 10.3785 15.5327C10.3365 15.4533 10.2769 15.3842 10.2039 15.3306L10.084 15.2137C10.0216 15.1519 9.94736 15.1028 9.86561 15.0694C9.78386 15.0359 9.69617 15.0186 9.60761 15.0186C9.51905 15.0186 9.43137 15.0359 9.34961 15.0694C9.26786 15.1028 9.19366 15.1519 9.13129 15.2137L7.30118 17.0128C7.23828 17.0742 7.18836 17.1472 7.15429 17.2277C7.12023 17.3081 7.10269 17.3944 7.10269 17.4816C7.10269 17.5687 7.12023 17.655 7.15429 17.7354C7.18836 17.8159 7.23828 17.8889 7.30118 17.9503L7.42012 18.0673C7.48259 18.1291 7.55689 18.1782 7.63873 18.2117C7.72057 18.2451 7.80833 18.2624 7.89698 18.2624C7.98562 18.2624 8.07339 18.2451 8.15522 18.2117C8.23706 18.1782 8.31135 18.1291 8.37382 18.0673L10.2039 16.2682C10.2785 16.2129 10.3389 16.1413 10.3803 16.059C10.4218 15.9768 10.4432 15.8862 10.4429 15.7944L10.4459 15.7894ZM17.5945 7.35554C17.5927 7.44785 17.613 7.53929 17.6538 7.62246C17.6946 7.70563 17.7548 7.77819 17.8294 7.8343L17.9483 7.95124C18.0836 8.07473 18.2599 8.14576 18.4445 8.15114C18.5304 8.15041 18.6154 8.13229 18.6939 8.09789C18.7724 8.0635 18.8429 8.01358 18.901 7.95124L20.7677 6.15213C20.8928 6.01881 20.965 5.84568 20.971 5.66437C20.97 5.57989 20.9515 5.4965 20.9165 5.41932C20.8816 5.34214 20.8309 5.27281 20.7677 5.21559L20.6487 5.05966L20.4118 4.93572C20.3216 4.90838 20.2276 4.89523 20.1333 4.89674C19.9469 4.87996 19.7614 4.93597 19.6168 5.05267L17.7866 6.88776C17.7226 6.94923 17.6722 7.02305 17.6386 7.10458C17.605 7.18611 17.589 7.2736 17.5915 7.36153L17.5945 7.35554ZM11.7565 4.64187C11.8174 4.77321 11.9082 4.88903 12.0219 4.98036C12.1356 5.0717 12.2692 5.13611 12.4122 5.16861C12.7017 5.24762 13.0099 5.22681 13.2856 5.10964C13.4215 5.05315 13.5414 4.9649 13.6348 4.85255C13.7281 4.74021 13.7922 4.60716 13.8214 4.46495C13.9018 4.16813 13.8879 3.85427 13.7818 3.5654C13.7094 3.41756 13.6003 3.29002 13.4646 3.19458C13.3457 3.10978 13.2104 3.04991 13.067 3.01867C13.0223 2.98401 12.9701 2.95979 12.9144 2.94784C12.8588 2.93589 12.8011 2.93653 12.7457 2.9497C12.5666 2.94809 12.3896 2.98816 12.2292 3.06664C12.0787 3.13803 11.949 3.24564 11.852 3.37949C11.7652 3.49597 11.7042 3.62913 11.6731 3.7703C11.5921 4.06283 11.6206 4.37425 11.7534 4.64787L11.7565 4.64187ZM8.18166 11.4155C8.20495 11.5127 8.24556 11.6051 8.30163 11.6884L10.6045 11.6104L10.8079 10.6339C10.8281 10.5751 10.8618 10.5216 10.9064 10.4776C10.951 10.4335 11.0053 10.4002 11.0651 10.38C11.1872 10.3409 11.3176 10.334 11.4433 10.3601L13.5083 11.0597C13.5763 11.0661 13.6445 11.0499 13.702 11.0137C13.7596 10.9774 13.803 10.9232 13.8255 10.8598C13.838 10.8333 13.8409 10.8033 13.8337 10.775C13.8265 10.7466 13.8096 10.7215 13.7858 10.7039L13.6608 10.563L11.5958 9.89929C11.485 9.8431 11.3947 9.75437 11.3376 9.64541C11.2721 9.53318 11.2508 9.40125 11.2776 9.27459L11.7941 7.86928C11.9265 7.5233 11.9265 7.1418 11.7941 6.79581C11.7391 6.64482 11.6496 6.50821 11.5326 6.39647C11.4156 6.28472 11.2741 6.20079 11.119 6.15113C10.9734 6.09741 10.8172 6.07724 10.6625 6.09216C10.4955 6.10323 10.3361 6.16466 10.206 6.26807C9.87936 6.46091 9.6384 6.76735 9.53085 7.12665L8.17963 11.0697V11.4215L8.18166 11.4155ZM21.5262 12.509C21.5856 12.7386 21.6257 12.9726 21.6461 13.2087C21.6855 13.6854 21.5744 14.1626 21.3279 14.575C21.1777 14.8288 20.9747 15.0485 20.7321 15.2197C20.4368 15.4277 20.0976 15.5678 19.7398 15.6295L19.6198 15.6685L12.6298 15.8244C12.5493 15.8175 12.471 15.7949 12.3995 15.758C12.3279 15.7212 12.2645 15.6707 12.213 15.6095C12.1183 15.4859 12.0695 15.3343 12.0747 15.1797C12.0674 15.031 12.1167 14.8849 12.213 14.7699C12.2539 14.7209 12.3055 14.6815 12.3638 14.6545C12.4222 14.6275 12.486 14.6137 12.5505 14.614L19.5405 14.575C19.7314 14.563 19.9159 14.5028 20.0762 14.4002C20.2366 14.2976 20.3672 14.1561 20.4556 13.9893C20.513 13.8417 20.553 13.6881 20.5745 13.5315V13.0617L15.1726 13.0228C15.0609 13.0185 14.9533 12.9802 14.8647 12.9132C14.7761 12.8461 14.7109 12.7536 14.6782 12.6485C14.6454 12.5434 14.6468 12.4309 14.682 12.3265C14.7172 12.2222 14.7846 12.1312 14.8747 12.0662C14.9814 11.9798 15.1148 11.9315 15.253 11.9293L21.091 12.0073C21.3554 11.9819 21.5007 12.1512 21.5272 12.515L21.5262 12.509Z" fill="#77DADA"/>
</svg>
