<svg width="24" height="24" viewBox="0 0 24 24" fill="none" xmlns="http://www.w3.org/2000/svg">
<path fill-rule="evenodd" clip-rule="evenodd" d="M13.9963 10.0978C13.5937 10.5285 13.0752 10.823 12.5088 10.9427C11.9424 11.0624 11.3544 11.0018 10.8217 10.7689C10.289 10.5359 9.8364 10.1414 9.52315 9.63692C9.20991 9.13248 9.05058 8.54161 9.06601 7.9416C9.05175 7.54474 9.11834 7.14922 9.26144 6.78093C9.40454 6.41264 9.62092 6.07988 9.89642 5.80442C10.1701 5.5328 10.4929 5.32019 10.8461 5.1789C11.1994 5.03762 11.5761 4.97044 11.9546 4.98127C12.3318 4.97006 12.7073 5.03908 13.0579 5.18409C13.4085 5.32909 13.7269 5.54703 13.9934 5.8245C14.5376 6.3918 14.8435 7.15978 14.844 7.96055C14.8445 8.76132 14.5398 9.52975 13.9963 10.0978ZM10.5789 9.39516C10.7596 9.58074 10.9754 9.72536 11.2127 9.81988C11.45 9.91439 11.7036 9.95675 11.9575 9.94426C12.4741 9.94152 12.9693 9.72894 13.337 9.352C13.5199 9.17397 13.6649 8.95807 13.7625 8.71824C13.86 8.47841 13.9081 8.21998 13.9035 7.95967C13.9069 7.69671 13.8584 7.43581 13.7609 7.19307C13.6635 6.95032 13.5192 6.73088 13.337 6.54827C13.1581 6.35764 12.9435 6.2071 12.7064 6.10592C12.4693 6.00475 12.2147 5.95509 11.9584 5.96002C11.4473 5.9479 10.9521 6.14515 10.5799 6.50912C10.3913 6.69494 10.2431 6.92052 10.1454 7.17072C10.0477 7.42091 10.0027 7.68991 10.0134 7.95967C10.0061 8.22606 10.0527 8.49107 10.1501 8.73763C10.2475 8.98419 10.3936 9.20681 10.5789 9.39115V9.39516ZM8.91714 14.5318C7.35623 12.748 6.40136 10.4821 6.19873 8.08113C6.17518 7.2377 6.32845 6.39903 6.64794 5.6232C6.96742 4.84737 7.44549 4.15292 8.04903 3.58794C9.16758 2.5613 10.6099 1.99632 12.1028 2.00002C13.5956 2.00372 15.0353 2.57585 16.1491 3.60802C16.7533 4.1686 17.2333 4.85848 17.556 5.63017C17.8788 6.40185 18.0367 7.237 18.0188 8.07812C17.8693 10.5111 16.9156 12.8159 15.3187 14.6031C14.4557 15.6779 13.4877 16.6568 12.4302 17.5243C12.3325 17.6016 12.2128 17.643 12.0899 17.6417C12.0399 17.6476 11.9892 17.6399 11.943 17.6193C11.8967 17.5987 11.8564 17.5659 11.826 17.5243C10.745 16.6499 9.7688 15.6442 8.9181 14.5288L8.91714 14.5318ZM8.67256 4.23542C8.16592 4.70887 7.76365 5.29028 7.4932 5.93995C7.22276 6.58961 7.09052 7.29223 7.10551 7.99982C7.236 9.94876 7.96288 11.8034 9.18009 13.2931C10.0577 14.4747 11.0443 15.5647 12.1257 16.5475C13.1898 15.6138 14.1522 14.5618 14.9959 13.4105C16.2159 11.8764 16.9421 9.9838 17.0724 7.99882C17.087 7.29128 16.9546 6.58879 16.6841 5.93918C16.4137 5.28958 16.0116 4.70812 15.5053 4.23442C14.5724 3.37053 13.3716 2.88352 12.1218 2.86217C10.8507 2.87597 9.62671 3.3633 8.67256 4.23542ZM17.9994 17.6066C18.2757 17.7443 18.513 17.9538 18.6883 18.2148C18.8637 18.4758 18.971 18.7795 19 19.0963C18.9246 20.0372 18.1834 20.7563 16.7766 21.2535C15.2343 21.7711 13.6207 22.0228 12 21.9984C10.3793 22.0228 8.76574 21.7712 7.22345 21.2535C5.81333 20.757 5.07218 20.0379 5 19.0963C5.0253 18.7721 5.13186 18.4604 5.30908 18.1922C5.4863 17.924 5.72802 17.7086 6.01022 17.5674C6.91008 17.0428 7.89621 16.697 8.9181 16.5475C9.03462 16.5201 9.15684 16.5414 9.25839 16.6068C9.30887 16.6387 9.35222 16.6815 9.38555 16.7322C9.41889 16.7829 9.44145 16.8404 9.45173 16.9009C9.4782 17.0219 9.45771 17.1488 9.3947 17.2542C9.32734 17.3624 9.22792 17.4448 9.11145 17.4891C8.27847 17.5997 7.46859 17.8514 6.71399 18.234C6.52205 18.2997 6.34811 18.4124 6.20681 18.5624C6.0655 18.7125 5.96095 18.8955 5.90195 19.0963C5.92708 19.5406 6.48101 19.972 7.56373 20.3902C8.99088 20.8639 10.4837 21.0892 11.9816 21.0568C13.4913 21.0918 14.9957 20.8599 16.4305 20.3712C17.5125 19.9395 18.0665 19.5145 18.0923 19.0963C18.0363 18.8993 17.9349 18.7195 17.7967 18.5725C17.6585 18.4255 17.4879 18.3159 17.2995 18.2531C16.5591 17.8811 15.7703 17.6234 14.9582 17.4881C14.8384 17.4408 14.7338 17.3594 14.6565 17.2532C14.6196 17.2038 14.595 17.1457 14.5851 17.084C14.5751 17.0223 14.5801 16.9591 14.5995 16.8999C14.6308 16.7782 14.705 16.6732 14.8073 16.6057C14.9089 16.5403 15.0311 16.519 15.1476 16.5465C16.1515 16.7204 17.1173 17.0794 17.9994 17.6066Z" fill="#77DADA"/>
</svg>
