<svg width="24" height="24" viewBox="0 0 24 24" fill="none" xmlns="http://www.w3.org/2000/svg">
<path fill-rule="evenodd" clip-rule="evenodd" d="M19.1206 4.97879C20.7428 6.62397 21.7453 8.78014 21.9577 11.0808C22.17 13.3815 21.5792 15.6848 20.2855 17.5991C18.9919 19.5134 17.0752 20.9208 14.8614 21.5819C12.6475 22.243 10.273 22.1171 8.1415 21.2256C6.00996 20.3341 4.25288 18.732 3.16889 16.6916C2.08491 14.6512 1.74091 12.2984 2.19536 10.0331C2.64981 7.76775 3.87467 5.72967 5.66175 4.26524C7.44884 2.80081 9.68789 2.00038 11.9984 2C14.6735 2.00941 17.2353 3.08088 19.1206 4.97879ZM5.13372 17.9212C5.15998 17.8818 5.15998 17.8758 5.13372 17.901L7.69735 15.2576H6.82967C6.76824 15.2592 6.70734 15.2457 6.65236 15.2183C6.59739 15.1908 6.55005 15.1502 6.51452 15.1C6.43659 14.998 6.39499 14.8728 6.39634 14.7444V11.4697C6.39192 11.4024 6.40395 11.335 6.43141 11.2734C6.45886 11.2118 6.50091 11.1579 6.55392 11.1162C6.59661 11.0792 6.64729 11.0527 6.70198 11.0387C6.75667 11.0246 6.81387 11.0235 6.86907 11.0354H11.9984L17.8781 5.15657C17.0701 4.4887 16.1553 3.9618 15.1721 3.59798C13.5397 2.99127 11.7679 2.86393 10.0656 3.23099C8.36322 3.59806 6.80132 4.44422 5.56402 5.6697C4.71943 6.51122 4.05344 7.51461 3.60598 8.61973C3.15852 9.72484 2.9388 10.9089 2.95998 12.101C2.95689 13.1844 3.14496 14.2598 3.51554 15.2778C3.86642 16.263 4.38708 17.1792 5.05392 17.9848C5.07147 17.9817 5.08795 17.9743 5.10189 17.9631C5.11582 17.952 5.12676 17.9376 5.13372 17.9212ZM10.1842 14.2323H15.5509V11.9828H12.3933L10.1842 14.2323ZM11.0519 11.9828H7.3822V14.2323H8.72361L11.0519 11.9828ZM18.4256 18.5323C20.1365 16.8248 21.1148 14.5179 21.1529 12.101C21.1612 10.9088 20.9261 9.72746 20.462 8.62929C20.0126 7.56818 19.3626 6.60375 18.5478 5.78889L13.3792 10.9576H18.5478C18.6726 10.9784 18.7868 11.0401 18.8726 11.133C18.9583 11.2259 19.0107 11.3447 19.0216 11.4707V14.703C18.9996 14.8233 18.9525 14.9376 18.8832 15.0384C18.843 15.0873 18.7914 15.1256 18.7329 15.1497C18.6744 15.1738 18.6108 15.1831 18.5478 15.1768H9.15391L5.80038 18.5303L5.6822 18.6091C6.51371 19.4205 7.49251 20.0658 8.56604 20.5101C9.65497 20.9593 10.8224 21.1873 12.0004 21.1808C13.1943 21.1878 14.3776 20.9572 15.4816 20.5025C16.5855 20.0478 17.588 19.3781 18.4307 18.5323H18.4256ZM18.1105 14.2313V11.9828H16.4943V14.2323L18.1105 14.2313ZM6.99028 9.02323L6.39836 9.81212C5.96206 10.166 5.67941 10.6749 5.60947 11.2323C5.63058 11.3016 5.65691 11.3691 5.68826 11.4343L5.76705 11.5525C5.81025 11.5858 5.84642 11.6273 5.87347 11.6746C5.90052 11.7219 5.9179 11.7742 5.92462 11.8283C5.937 11.8946 5.93059 11.963 5.90614 12.0258C5.88169 12.0886 5.84016 12.1434 5.78624 12.1838C5.69753 12.2757 5.5782 12.3317 5.45089 12.3414C5.39849 12.3414 5.34666 12.3306 5.29868 12.3095C5.25069 12.2885 5.20759 12.2577 5.1721 12.2192C5.07066 12.1435 4.98375 12.0501 4.91554 11.9434C4.7764 11.7308 4.68857 11.4887 4.65897 11.2364C4.66805 10.8093 4.7719 10.3896 4.96301 10.0075C5.15412 9.62548 5.42771 9.29066 5.76402 9.02727C5.89533 8.8697 6.07277 8.65926 6.29634 8.39596C6.50519 8.16987 6.62443 7.87538 6.63169 7.56768C6.59229 7.4598 6.54607 7.35454 6.49331 7.25253C6.36945 7.06744 6.19958 6.91776 6.00038 6.81818C5.94199 6.79416 5.88956 6.75766 5.84675 6.71125C5.80394 6.66485 5.77179 6.60965 5.75254 6.54951C5.7333 6.48938 5.72743 6.42576 5.73535 6.36312C5.74326 6.30048 5.76477 6.24033 5.79836 6.18687C5.86238 6.06808 5.96765 5.97681 6.09432 5.9303C6.15063 5.91061 6.21107 5.90575 6.2698 5.91619C6.32854 5.92663 6.38359 5.95201 6.42967 5.9899C6.77527 6.18327 7.07206 6.45311 7.29735 6.77879C7.44148 6.98544 7.51257 7.23426 7.49937 7.48586C7.50753 8.04101 7.32816 8.58267 6.99028 9.02323Z" fill="#77DADA"/>
</svg>
