<svg width="24" height="24" viewBox="0 0 24 24" fill="none" xmlns="http://www.w3.org/2000/svg">
<path fill-rule="evenodd" clip-rule="evenodd" d="M7.16121 13.606C7.07158 13.5138 7.02203 13.3926 7.0226 13.267V6.34614C6.99452 5.99374 7.04709 5.63975 7.17669 5.30857C7.30629 4.9774 7.50983 4.67693 7.77327 4.4279C8.04776 4.21939 8.37502 4.08323 8.72223 4.03308C8.93082 3.99682 9.14392 3.99032 9.35452 4.01382C9.73722 4.00983 10.1087 4.13659 10.4016 4.37108C10.5505 4.48714 10.6691 4.63453 10.7479 4.80165C10.8267 4.96876 10.8637 5.15102 10.8558 5.33405C10.8826 5.52381 10.8645 5.71685 10.8029 5.89911C10.7413 6.08136 10.6377 6.24823 10.4997 6.38754C10.2757 6.55869 9.99685 6.65149 9.70962 6.65043C9.56909 6.6472 9.43502 6.59354 9.33429 6.50021C9.27713 6.45395 9.23149 6.39616 9.2007 6.33104C9.1699 6.26592 9.15472 6.19509 9.15624 6.12369C9.15295 6.05662 9.1655 5.98971 9.19299 5.92788C9.22048 5.86605 9.2622 5.81087 9.31507 5.76643C9.406 5.68437 9.52568 5.63736 9.65094 5.6345C9.71068 5.62466 9.77211 5.63134 9.82798 5.65376C9.82798 5.6666 9.84113 5.53499 9.86743 5.25894C9.85478 5.19745 9.82905 5.13908 9.79182 5.08741C9.75459 5.03574 9.70665 4.99187 9.65094 4.95849C9.5402 4.88588 9.40907 4.84662 9.27459 4.84583H9.23514C9.20883 4.84583 9.10969 4.85257 8.93871 4.86509C8.74452 4.88664 8.56018 4.95822 8.40557 5.07212C8.23344 5.23831 8.10448 5.44048 8.02895 5.6625C7.95343 5.88452 7.93342 6.12027 7.97054 6.35095V8.26438H15.6775V6.34614C15.6489 5.99403 15.7008 5.64021 15.8297 5.30905C15.9586 4.97789 16.1614 4.67727 16.4241 4.4279C16.6753 4.2189 16.9837 4.082 17.3134 4.03308C17.5135 3.99733 17.7182 3.99083 17.9204 4.01382C18.3029 4.00755 18.6731 4.14249 18.9533 4.39034C19.0951 4.51098 19.2074 4.6597 19.2824 4.82606C19.3574 4.99242 19.3932 5.17238 19.3873 5.35331C19.3955 5.52621 19.3664 5.69888 19.3019 5.86068C19.2373 6.02248 19.1387 6.16999 19.012 6.29414C18.8779 6.4163 18.719 6.51102 18.545 6.57246C18.371 6.63391 18.1856 6.66077 18.0003 6.6514C17.7373 6.6514 17.6057 6.48833 17.6057 6.16221C17.6232 6.02819 17.6852 5.903 17.7828 5.80495C17.8264 5.76232 17.8786 5.72863 17.9364 5.70594C17.9942 5.68326 18.0562 5.67205 18.1187 5.67302C18.1632 5.68256 18.2095 5.68241 18.254 5.67258C18.2985 5.66274 18.3401 5.64347 18.3756 5.6162C18.4378 5.5788 18.4875 5.52537 18.519 5.46213C18.5506 5.39889 18.5626 5.32843 18.5537 5.25894C18.5543 5.19839 18.5382 5.13874 18.507 5.086C18.4757 5.03325 18.4304 4.98928 18.3756 4.95849C18.2653 4.88579 18.1345 4.84652 18.0003 4.84583H17.9214C17.6416 4.85215 17.3687 4.92998 17.1313 5.07116C16.9575 5.23751 16.8248 5.43855 16.7428 5.65973C16.6607 5.8809 16.6313 6.11668 16.6568 6.34999V13.267C16.6646 13.3298 16.658 13.3935 16.6375 13.4537C16.6169 13.5139 16.583 13.5691 16.5379 13.6156C16.4928 13.6621 16.4377 13.6987 16.3763 13.723C16.3149 13.7472 16.2487 13.7586 16.1823 13.7562C16.112 13.7594 16.0417 13.7475 15.9768 13.7216C15.9118 13.6956 15.8538 13.6561 15.807 13.606C15.7181 13.5134 15.669 13.3924 15.6694 13.267V11.4663H8.00191V13.267C8.00518 13.334 7.9927 13.4008 7.9654 13.4626C7.9381 13.5244 7.89665 13.5796 7.84408 13.6243C7.74736 13.7092 7.62057 13.7563 7.48898 13.7562C7.42612 13.7556 7.36418 13.7418 7.30754 13.7158C7.25089 13.6898 7.20094 13.6524 7.16121 13.606ZM7.97054 9.24275V10.5591H15.5976V9.24275H7.97054ZM2.15947 15.9566C2.1069 15.912 2.06546 15.8567 2.03815 15.7949C2.01085 15.7331 1.99838 15.6663 2.00165 15.5993C1.99697 15.5349 2.00891 15.4703 2.03641 15.4112C2.06391 15.3521 2.10616 15.3004 2.15947 15.2604C2.2617 15.1861 2.38702 15.1465 2.51559 15.1477C2.91371 15.1308 3.30937 15.2152 3.66181 15.3923C3.92359 15.5362 4.16846 15.7063 4.39224 15.8998C4.56184 16.0549 4.74721 16.1936 4.94563 16.3139C5.17523 16.413 5.42445 16.4643 5.67658 16.4643C5.9287 16.4643 6.1779 16.413 6.4075 16.3139C6.60592 16.1936 6.79129 16.0549 6.96089 15.8998C7.18502 15.7063 7.43023 15.5362 7.69233 15.3923C8.05078 15.2313 8.44221 15.1478 8.83856 15.1478C9.23491 15.1478 9.62635 15.2313 9.9848 15.3923C10.2466 15.5362 10.4914 15.7063 10.7152 15.8998C10.8848 16.0549 11.0702 16.1936 11.2686 16.3139C11.4982 16.413 11.7474 16.4643 11.9996 16.4643C12.2517 16.4643 12.5009 16.413 12.7305 16.3139C12.9289 16.1936 13.1143 16.0549 13.2839 15.8998C13.508 15.7063 13.7532 15.5362 14.0153 15.3923C14.3738 15.2313 14.7652 15.1478 15.1615 15.1478C15.5579 15.1478 15.9493 15.2313 16.3078 15.3923C16.5696 15.5362 16.8144 15.7063 17.0382 15.8998C17.2078 16.0549 17.3932 16.1936 17.5916 16.3139C17.8212 16.413 18.0704 16.4643 18.3225 16.4643C18.5747 16.4643 18.8239 16.413 19.0535 16.3139C19.2519 16.1936 19.4372 16.0549 19.6068 15.8998C19.831 15.7063 20.0762 15.5362 20.3383 15.3923C20.6907 15.2151 21.0864 15.1307 21.4845 15.1477C21.5505 15.1404 21.6173 15.1468 21.6805 15.1664C21.7436 15.186 21.8015 15.2184 21.8503 15.2613C21.8991 15.3042 21.9376 15.3566 21.9632 15.4149C21.9888 15.4732 22.0008 15.5362 21.9985 15.5993C22.0015 15.6664 21.9889 15.7332 21.9614 15.795C21.9339 15.8568 21.8923 15.912 21.8396 15.9566C21.7424 16.042 21.6148 16.0891 21.4825 16.0885C21.2289 16.0747 20.9761 16.1267 20.7511 16.2387C20.5529 16.3594 20.3676 16.4981 20.1977 16.6528C19.9742 16.8466 19.7293 17.0168 19.4672 17.1603C19.1088 17.3213 18.7174 17.4048 18.321 17.4048C17.9247 17.4048 17.5332 17.3213 17.1748 17.1603C16.9124 17.0168 16.6672 16.8466 16.4433 16.6528C16.2734 16.4981 16.0881 16.3594 15.8899 16.2387C15.6603 16.1396 15.4111 16.0883 15.159 16.0883C14.9069 16.0883 14.6577 16.1396 14.4281 16.2387C14.23 16.3594 14.0446 16.4981 13.8747 16.6528C13.6512 16.8466 13.4063 17.0168 13.1443 17.1603C12.7858 17.3213 12.3944 17.4048 11.998 17.4048C11.6017 17.4048 11.2102 17.3213 10.8518 17.1603C10.5894 17.0168 10.3442 16.8466 10.1204 16.6528C9.95041 16.4981 9.76508 16.3594 9.56697 16.2387C9.33736 16.1396 9.08815 16.0883 8.83603 16.0883C8.58391 16.0883 8.33471 16.1396 8.1051 16.2387C7.90699 16.3594 7.72164 16.4981 7.5517 16.6528C7.32823 16.8466 7.08332 17.0168 6.82127 17.1603C6.46283 17.3213 6.0714 17.4048 5.67505 17.4048C5.2787 17.4048 4.88727 17.3213 4.52882 17.1603C4.26647 17.0168 4.02122 16.8466 3.79738 16.6528C3.62744 16.4981 3.44211 16.3594 3.24399 16.2387C3.02043 16.1275 2.76952 16.0756 2.51761 16.0885C2.385 16.0893 2.25701 16.0421 2.15947 15.9566ZM21.8396 17.8748C21.8937 17.9097 21.937 17.9578 21.9649 18.014C21.9929 18.0703 22.0045 18.1326 21.9985 18.1945C22.0015 18.2616 21.9889 18.3284 21.9614 18.3902C21.9339 18.452 21.8923 18.5072 21.8396 18.5518C21.7429 18.6367 21.6161 18.6838 21.4845 18.6837C21.2309 18.6699 20.9781 18.7218 20.7531 18.8339C20.5549 18.9545 20.3696 19.0932 20.1997 19.248C19.9762 19.4418 19.7313 19.612 19.4693 19.7555C19.1108 19.9165 18.7194 20 18.323 20C17.9267 20 17.5352 19.9165 17.1768 19.7555C16.9144 19.612 16.6692 19.4418 16.4454 19.248C16.2754 19.0932 16.0901 18.9545 15.892 18.8339C15.6624 18.7348 15.4132 18.6834 15.161 18.6834C14.9089 18.6834 14.6597 18.7348 14.4301 18.8339C14.232 18.9545 14.0466 19.0932 13.8767 19.248C13.6532 19.4418 13.4083 19.612 13.1463 19.7555C12.7878 19.9165 12.3964 20 12 20C11.6037 20 11.2123 19.9165 10.8538 19.7555C10.5915 19.612 10.3462 19.4418 10.1224 19.248C9.95247 19.0932 9.76714 18.9545 9.56899 18.8339C9.3394 18.7348 9.0902 18.6834 8.83807 18.6834C8.58593 18.6834 8.33671 18.7348 8.10713 18.8339C7.90898 18.9545 7.72365 19.0932 7.55374 19.248C7.33027 19.4418 7.08535 19.612 6.82331 19.7555C6.46486 19.9165 6.07342 20 5.67707 20C5.28072 20 4.88929 19.9165 4.53084 19.7555C4.26849 19.612 4.02325 19.4418 3.7994 19.248C3.6295 19.0932 3.44416 18.9545 3.24602 18.8339C3.02128 18.7219 2.76886 18.67 2.51559 18.6837C2.38962 18.6849 2.26597 18.6515 2.15947 18.5874C2.10548 18.5525 2.06234 18.5044 2.03457 18.4481C2.00681 18.3919 1.99544 18.3296 2.00165 18.2677C1.99846 18.2008 2.01096 18.134 2.03825 18.0722C2.06555 18.0104 2.10696 17.9551 2.15947 17.9105C2.25666 17.8256 2.38373 17.7786 2.51559 17.7785C2.91371 17.7616 3.30937 17.8461 3.66181 18.0231C3.92359 18.167 4.16846 18.3372 4.39224 18.5306C4.56184 18.6857 4.74721 18.8245 4.94563 18.9447C5.17523 19.0438 5.42445 19.0951 5.67658 19.0951C5.9287 19.0951 6.1779 19.0438 6.4075 18.9447C6.60592 18.8245 6.79129 18.6857 6.96089 18.5306C7.18502 18.3371 7.43023 18.167 7.69233 18.0231C8.05078 17.8621 8.44221 17.7786 8.83856 17.7786C9.23491 17.7786 9.62635 17.8621 9.9848 18.0231C10.2466 18.167 10.4914 18.3372 10.7152 18.5306C10.8848 18.6857 11.0702 18.8245 11.2686 18.9447C11.4982 19.0438 11.7474 19.0951 11.9996 19.0951C12.2517 19.0951 12.5009 19.0438 12.7305 18.9447C12.9289 18.8245 13.1143 18.6857 13.2839 18.5306C13.508 18.3371 13.7532 18.167 14.0153 18.0231C14.3738 17.8621 14.7652 17.7786 15.1615 17.7786C15.5579 17.7786 15.9493 17.8621 16.3078 18.0231C16.5696 18.167 16.8144 18.3372 17.0382 18.5306C17.2078 18.6857 17.3932 18.8245 17.5916 18.9447C17.8212 19.0438 18.0704 19.0951 18.3225 19.0951C18.5747 19.0951 18.8239 19.0438 19.0535 18.9447C19.2519 18.8245 19.4372 18.6857 19.6068 18.5306C19.831 18.3371 20.0762 18.167 20.3383 18.0231C20.6907 17.846 21.0864 17.7615 21.4845 17.7785C21.6109 17.7777 21.7349 17.8114 21.8416 17.8758L21.8396 17.8748Z" fill="#77DADA"/>
</svg>
