<svg width="24" height="24" viewBox="0 0 24 24" fill="none" xmlns="http://www.w3.org/2000/svg">
<path fill-rule="evenodd" clip-rule="evenodd" d="M16.0472 9.30127C17.2762 9.87838 18.3985 10.6685 19.3645 11.6367C19.4414 11.74 19.4825 11.8666 19.4814 11.9965C19.4847 12.1204 19.443 12.2413 19.3645 12.3358C19.3252 12.3821 19.2774 12.4201 19.2238 12.4475C19.1701 12.4748 19.1117 12.4911 19.0519 12.4952C18.9923 12.5038 18.9316 12.4952 18.8766 12.4705C18.8215 12.4458 18.7743 12.4059 18.7402 12.3552C17.8899 11.4227 16.8691 10.6698 15.7356 10.1394C14.6118 9.61922 13.3976 9.33427 12.1646 9.30127C10.9393 9.2549 9.7176 9.46532 8.57464 9.91962C7.43694 10.3773 6.39685 11.0566 5.51208 11.9198C5.41111 11.9985 5.2874 12.0406 5.16047 12.0394C5.03021 12.0398 4.90461 11.9897 4.80886 11.8994C4.75972 11.8583 4.7202 11.8066 4.69323 11.7478C4.66626 11.6891 4.65253 11.6249 4.65304 11.56C4.65364 11.4924 4.66777 11.4255 4.69457 11.3636C4.72137 11.3018 4.76026 11.2462 4.80886 11.2003C5.7912 10.2357 6.95197 9.48165 8.22303 8.98239C9.48577 8.48977 10.8333 8.26547 12.1836 8.32316C13.52 8.39879 14.8306 8.73058 16.0472 9.30127ZM12.4183 11.2575C14.2154 11.3133 15.9215 12.0788 17.179 13.3936C17.2187 13.436 17.2495 13.4863 17.2696 13.5413C17.2897 13.5963 17.2986 13.6549 17.2958 13.7135C17.2991 13.8375 17.2575 13.9584 17.179 14.0528C17.14 14.0993 17.0924 14.1373 17.0389 14.1647C16.9853 14.1921 16.927 14.2083 16.8673 14.2123C16.8076 14.2209 16.7468 14.2124 16.6916 14.1877C16.6363 14.163 16.5889 14.123 16.5547 14.0723C15.4588 12.9469 13.9894 12.2844 12.4383 12.2162C11.6688 12.1844 10.9009 12.3112 10.1803 12.5889C9.45958 12.8667 8.80079 13.2898 8.24301 13.8331C8.14201 13.9117 8.01832 13.9538 7.8914 13.9527C7.82989 13.9528 7.76896 13.9405 7.71212 13.9164C7.65528 13.8924 7.60365 13.8571 7.5602 13.8125C7.51675 13.768 7.48234 13.7151 7.45896 13.6568C7.43557 13.5986 7.42367 13.5363 7.42393 13.4733C7.42275 13.3435 7.46386 13.2169 7.5408 13.1136C8.19327 12.4893 8.9604 12.0037 9.79767 11.6851C10.635 11.3665 11.5257 11.2212 12.4183 11.2575ZM21.9975 9.87976C21.9867 9.95129 21.9575 10.0186 21.913 10.0748C21.8684 10.131 21.81 10.1741 21.7438 10.1997C21.6423 10.262 21.5295 10.3027 21.4122 10.3193C21.3575 10.3384 21.2979 10.3369 21.2442 10.315C21.1905 10.293 21.1463 10.2521 21.1195 10.1997C19.9614 8.92424 18.5683 7.89558 17.0203 7.17281C15.4724 6.45003 13.8001 6.0474 12.0996 5.98804C10.3991 5.92868 8.70387 6.21376 7.11138 6.82691C5.5189 7.44006 4.06053 8.36918 2.8201 9.56088C2.71914 9.6396 2.59543 9.68167 2.4685 9.68046C2.40691 9.68073 2.34586 9.66852 2.28891 9.64452C2.23195 9.62053 2.1802 9.58523 2.13664 9.54066C2.09309 9.4961 2.0586 9.44315 2.03515 9.38487C2.0117 9.32659 1.99976 9.26414 2.00002 9.20111C1.99884 9.07124 2.03996 8.94466 2.11689 8.84135C4.83939 6.25513 8.45192 4.87712 12.1646 5.00862C13.9948 5.07236 15.7944 5.50752 17.4589 6.28882C19.1234 7.07011 20.6196 8.18198 21.8607 9.55986C21.9093 9.59491 21.9477 9.64279 21.9718 9.69841C21.9959 9.75402 22.0048 9.81529 21.9975 9.87567V9.87976ZM12.672 14.4749C12.9532 14.5472 13.2157 14.6811 13.4415 14.8672C13.6672 15.0534 13.8508 15.2874 13.9796 15.5532C14.1086 15.8164 14.1944 16.0996 14.2333 16.3913C14.272 16.685 14.2519 16.9837 14.1743 17.2693C13.9916 17.8463 13.6178 18.34 13.1175 18.6654C12.772 18.8664 12.3831 18.9763 11.9858 18.9853C11.7772 19.0141 11.565 19.0005 11.3615 18.9455C10.8051 18.7452 10.3263 18.3672 9.99604 17.8672C9.8647 17.5977 9.77891 17.3074 9.74232 17.0086C9.70309 16.7082 9.72313 16.4027 9.80126 16.1103C9.99719 15.541 10.3666 15.0513 10.8551 14.7131C11.4098 14.4025 12.0587 14.3174 12.672 14.4749ZM13.1595 16.0724C13.0622 15.841 12.8901 15.6508 12.672 15.5338C12.4688 15.4188 12.241 15.357 12.0088 15.3539C11.7793 15.3576 11.5557 15.4285 11.3645 15.5583C11.0677 15.7505 10.8521 16.0496 10.7602 16.3964C10.7144 16.5635 10.7029 16.7385 10.7265 16.9104C10.75 17.0822 10.8081 17.2472 10.897 17.395C11.0657 17.7039 11.3456 17.9331 11.6771 18.0338C11.8396 18.0871 12.0118 18.1022 12.1807 18.0779C12.3497 18.0537 12.5112 17.9907 12.6531 17.8937C12.9569 17.7043 13.1903 17.4166 13.3163 17.0761C13.3575 16.9075 13.3649 16.7321 13.3381 16.5605C13.3113 16.3889 13.2509 16.2246 13.1605 16.0775L13.1595 16.0724Z" fill="#77DADA"/>
</svg>
